<svg width="144" height="57" viewBox="0 0 240 95" class="css-1j8o68f">
  <defs id="SvgjsDefs2766"></defs>
  <g id="SvgjsG2767" featurekey="nameGroupContainer" transform="matrix(1,0,0,1,0,0)" fill="#122c6e">
    <rect xmlns="http://www.w3.org/2000/svg" width="240" height="95" rx="10" ry="10"></rect>
  </g>
  <g id="SvgjsG2768" featurekey="nameFeature-0"
    transform="matrix(1.2756416407769315,0,0,1.2756416407769315,18.973818401066435,12.75435813245877)" fill="#ffffff">
    <path
      d="M18.4 19.38 c0.16 0.02 0.04 0.62 -0.12 0.62 l-4.84 0 c-0.14 0 -0.26 -0.6 -0.12 -0.62 c0.74 -0.12 1.4 -0.46 1.34 -1.8 l-0.36 -7.24 l-3.5 7.12 c-0.36 0.74 -0.72 1.64 -0.78 2 c-0.04 0.22 -0.38 0.36 -0.66 0.36 s-0.44 -0.12 -0.56 -0.36 l-4.76 -9.04 l-0.3 7.16 c-0.06 1.34 0.62 1.72 1.34 1.8 c0.16 0.02 0.04 0.62 -0.1 0.62 l-3.98 0 c-0.16 0 -0.28 -0.6 -0.12 -0.62 c0.86 -0.1 1.62 -0.4 1.68 -1.8 l0.6 -11.56 c0.02 -0.3 0.7 -0.32 0.86 0 l5.82 11 l5.44 -11 c0.16 -0.32 0.84 -0.3 0.86 0 l0.6 11.56 c0.06 1.4 0.78 1.7 1.66 1.8 z M27.1305 20.32 c-2.76 0 -5.88 -1.48 -5.88 -5.54 l0 -6.36 c0 -1.3 -0.7 -1.68 -1.64 -1.8 c-0.16 -0.02 -0.04 -0.62 0.12 -0.62 l5.16 0 c0.16 0 0.28 0.6 0.12 0.62 c-0.8 0.1 -1.6 0.4 -1.6 1.8 l0 6.46 c0 2.84 1.66 4.22 3.9 4.22 c2.3 0 4.08 -1.38 4.08 -4.22 l0 -6.46 c0 -1.32 -0.74 -1.66 -1.72 -1.8 c-0.14 -0.02 -0.04 -0.62 0.12 -0.62 l4.36 0 c0.16 0 0.28 0.6 0.12 0.62 c-0.84 0.1 -1.64 0.4 -1.64 1.8 l0 6.36 c0 3.66 -2.36 5.54 -5.5 5.54 z M39.661 20.32 c-1.66 0 -4.06 -0.76 -3.84 -1.6 l0.18 -0.7 c0.54 -1.94 1.14 0.98 4.44 0.98 c1.74 0 2.72 -0.84 2.72 -2.1 c0 -1.04 -0.76 -1.5 -2.04 -2.26 l-2.24 -1.36 c-2.04 -1.24 -2.84 -2.12 -2.84 -3.5 c0 -2.38 2.28 -4.1 4.82 -4.1 c1.54 0 3.42 0.64 3.22 1.32 l-0.24 0.74 c-0.56 1.8 -1.08 -0.76 -3.82 -0.76 c-1.54 0 -2.32 0.8 -2.32 1.88 c0 0.88 0.54 1.4 1.88 2.22 l2.34 1.4 c2.04 1.22 2.86 2.14 2.86 3.52 c0 2.44 -2.44 4.32 -5.12 4.32 z M46.3315 20 c-0.16 0 -0.28 -0.6 -0.12 -0.62 c0.98 -0.14 1.68 -0.5 1.68 -1.8 l0 -9.16 c0 -1.3 -0.7 -1.66 -1.68 -1.8 c-0.16 -0.02 -0.04 -0.62 0.12 -0.62 l5.18 0 c0.16 0 0.28 0.6 0.12 0.62 c-0.86 0.12 -1.66 0.4 -1.66 1.8 l0 9.16 c0 1.4 0.8 1.68 1.66 1.8 c0.16 0.02 0.04 0.62 -0.12 0.62 l-5.18 0 z M61.122 20.32 c-3.36 0 -7.96 -1.98 -7.96 -7.08 c0 -3.5 2.16 -7.56 7.68 -7.56 c2.28 0 4.3 0.7 4.06 1.4 l-0.24 0.74 c-0.62 1.9 -1.54 -0.68 -4.96 -0.68 c-2.92 0 -4.52 1.88 -4.52 4.92 c0 4.48 3.4 6.5 6.34 6.5 c0.34 0 1.98 -0.26 3.22 -1.04 c0.16 -0.1 0.54 0.3 0.42 0.48 c-0.86 1.24 -3.48 2.32 -4.04 2.32 z M73.02300000000001 20 c-0.18 0 -0.3 -0.58 -0.14 -0.6 c1.36 -0.16 2.28 -0.46 2.28 -1.54 l0 -10.02 c0 -0.48 -0.16 -0.64 -0.64 -0.64 l-0.64 0 c-2.02 0 -2.92 0.34 -3.38 1.3 c-0.18 0.36 -0.78 0.3 -0.72 0 c0.16 -0.78 0.32 -1.32 0.44 -2.34 c0.04 -0.34 0.28 -0.32 0.62 -0.28 c0.76 0.08 1.76 0.12 5.46 0.12 s5.18 -0.04 5.94 -0.12 c0.36 -0.04 0.7 -0.06 0.58 0.28 c-0.28 0.92 -0.48 1.58 -0.6 2.34 c-0.06 0.34 -0.56 0.32 -0.62 0 c-0.2 -0.94 -1.02 -1.3 -2.8 -1.3 l-0.72 0 c-0.48 0 -0.76 0.16 -0.76 0.64 l0 10.02 c0 1.08 0.94 1.38 2.28 1.54 c0.16 0.02 0.04 0.6 -0.14 0.6 l-6.44 0 z M98.8135 19.38 c0.16 0.02 0.04 0.62 -0.12 0.62 l-5.2 0 c-0.16 0 -0.28 -0.6 -0.12 -0.62 c1 -0.14 1.68 -0.5 1.68 -1.8 l0 -3.58 c-0.1 -0.34 -0.52 -0.34 -0.9 -0.34 l-5.62 0 c-0.38 0 -0.8 0 -0.9 0.34 l0 3.58 c0 1.4 0.8 1.68 1.66 1.8 c0.16 0.02 0.04 0.62 -0.12 0.62 l-5.18 0 c-0.16 0 -0.28 -0.6 -0.12 -0.62 c0.98 -0.14 1.68 -0.5 1.68 -1.8 l0 -9.16 c0 -1.3 -0.7 -1.66 -1.68 -1.8 c-0.16 -0.02 -0.04 -0.62 0.12 -0.62 l5.18 0 c0.16 0 0.28 0.6 0.12 0.62 c-0.86 0.12 -1.66 0.4 -1.66 1.8 l0 3.8 c0.1 0.34 0.52 0.34 0.9 0.34 l5.62 0 c0.38 0 0.8 0 0.9 -0.34 l0 -3.8 c0 -1.3 -0.68 -1.66 -1.68 -1.8 c-0.16 -0.02 -0.04 -0.62 0.12 -0.62 l5.2 0 c0.16 0 0.28 0.6 0.12 0.62 c-0.88 0.12 -1.68 0.4 -1.68 1.8 l0 9.16 c0 1.4 0.8 1.68 1.68 1.8 z M99.94400000000002 20.04 c-0.2 0.02 -0.28 -0.6 -0.12 -0.64 c1.18 -0.3 2.08 -0.48 2.08 -1.96 l0 -8.96 c0 -1.34 -0.82 -1.68 -1.7 -1.9 c-0.16 -0.04 -0.08 -0.64 0.12 -0.62 c1.46 0.12 3.6 0.12 5.08 0.12 c1.82 0 3.18 -0.08 4.76 -0.12 c0.46 0 0.46 0.32 0.36 0.76 l-0.5 1.9 c-0.06 0.26 -0.54 0.26 -0.62 0 c-0.28 -0.94 -0.92 -1.6 -3.46 -1.6 c-1.5 0 -1.96 0.36 -1.96 1.46 l0 3.32 c0 0.52 0.26 0.62 0.66 0.62 l0.38 0 c1.78 0 3.12 -0.12 4 -0.96 c0.18 -0.18 0.6 -0.14 0.44 0.24 l-1.18 2.52 c-0.14 0.34 -0.42 0.3 -0.64 0 c-0.48 -0.62 -1.52 -0.86 -2.78 -0.86 l-0.22 0 c-0.4 0 -0.66 0.1 -0.66 0.62 l0 3.46 c0 1.16 0.52 1.54 2.24 1.54 c3.24 0 4.28 -1.3 4.78 -2.14 c0.16 -0.26 0.64 -0.2 0.64 0.18 c0 1.1 -0.84 3 -2.06 3.02 c-0.96 -0.06 -2.24 -0.12 -3.96 -0.12 c-1.84 0 -3.84 -0.06 -5.68 0.12 z M120.27450000000002 20.32 c-4.16 0 -7.18 -3.1 -7.18 -7.26 c0 -4.02 2.84 -7.38 7.22 -7.38 c4.18 0 7.18 3.1 7.18 7.24 c0 4.04 -2.82 7.4 -7.22 7.4 z M121.01450000000001 19.1 c1.84 0 4.42 -1.18 4.42 -5.14 c0 -4.14 -2.84 -7.06 -5.84 -7.06 c-1.86 0 -4.42 1.18 -4.42 5.12 c0 4.18 2.82 7.08 5.84 7.08 z M143.185 19.54 c0.16 0 0.14 0.5 0 0.56 c-1.12 0.42 -2.78 0.28 -3.88 -1.14 l-3.12 -4 c-0.84 -1.08 -1.94 -1.28 -3.4 -1.3 l0 3.92 c0 1.4 0.92 1.64 2.26 1.8 c0.14 0.02 0.04 0.62 -0.12 0.62 l-5.78 0 c-0.16 0 -0.28 -0.6 -0.12 -0.62 c0.98 -0.14 1.68 -0.5 1.68 -1.8 l0 -9.04 c0 -1.32 -0.7 -1.7 -1.68 -1.96 c-0.16 -0.04 -0.06 -0.64 0.12 -0.62 c0.8 0.1 1.68 0.12 2.28 0.12 c1.34 0 2.62 -0.12 3.54 -0.12 c2.86 0 4.96 1.2 4.96 3.7 c0 2.38 -1.98 3.52 -3.5 3.62 l0 0.1 c0.74 0 1.24 0.32 2.08 1.38 l3.08 3.84 c0.56 0.72 1.1 0.94 1.6 0.94 z M133.405 12.8 c3 0 4.32 -0.52 4.32 -2.62 c0 -2.18 -1.44 -3.26 -3.28 -3.26 c-1.22 0 -1.66 0.48 -1.66 1.62 l0 4.26 l0.62 0 z M157.37550000000002 6 c0.24 0 0.3 0.58 0.06 0.62 c-0.8 0.12 -1.48 0.72 -2.4 2.18 l-3.28 5.14 l0 3.64 c0 1.4 0.82 1.64 2.06 1.8 c0.14 0.02 0.04 0.62 -0.12 0.62 l-5.96 0 c-0.16 0 -0.26 -0.6 -0.12 -0.62 c1.3 -0.16 2.08 -0.42 2.08 -1.8 l0 -3.6 l-3.42 -5.16 c-0.94 -1.42 -1.5 -2.06 -2.36 -2.2 c-0.26 -0.04 -0.2 -0.62 0.06 -0.62 l4.98 0 c0.26 0 0.3 0.58 0.06 0.62 c-0.9 0.14 -1.26 0.86 -0.38 2.18 l2.66 3.96 l2.56 -3.96 c0.86 -1.34 0.38 -2 -0.72 -2.18 c-0.26 -0.04 -0.2 -0.62 0.06 -0.62 l4.18 0 z">
    </path>
  </g>
  <g id="SvgjsG2769" featurekey="nameFeature-1"
    transform="matrix(1.781399991587169,0,0,1.781399991587169,19.118413037404412,38.88164920302017)" fill="#ffffff">
    <path
      d="M0.7 20.04 c-0.2 0.02 -0.28 -0.6 -0.12 -0.64 c1.18 -0.3 2.08 -0.48 2.08 -1.96 l0 -8.96 c0 -1.34 -0.82 -1.68 -1.7 -1.9 c-0.16 -0.04 -0.08 -0.64 0.12 -0.62 c1.46 0.12 3.6 0.12 5.08 0.12 c1.82 0 3.18 -0.08 4.76 -0.12 c0.46 0 0.46 0.32 0.36 0.76 l-0.5 1.9 c-0.06 0.26 -0.54 0.26 -0.62 0 c-0.28 -0.94 -0.92 -1.6 -3.46 -1.6 c-1.5 0 -1.96 0.36 -1.96 1.46 l0 3.32 c0 0.52 0.26 0.62 0.66 0.62 l0.38 0 c1.78 0 3.12 -0.12 4 -0.96 c0.18 -0.18 0.6 -0.14 0.44 0.24 l-1.18 2.52 c-0.14 0.34 -0.42 0.3 -0.64 0 c-0.48 -0.62 -1.52 -0.86 -2.78 -0.86 l-0.22 0 c-0.4 0 -0.66 0.1 -0.66 0.62 l0 3.46 c0 1.16 0.52 1.54 2.24 1.54 c3.24 0 4.28 -1.3 4.78 -2.14 c0.16 -0.26 0.64 -0.2 0.64 0.18 c0 1.1 -0.84 3 -2.06 3.02 c-0.96 -0.06 -2.24 -0.12 -3.96 -0.12 c-1.84 0 -3.84 -0.06 -5.68 0.12 z M28.0105 19.38 c0.24 0.02 0.18 0.62 -0.06 0.62 l-5.46 0 c-0.24 0 -0.3 -0.6 -0.04 -0.62 c1.28 -0.12 1.14 -0.84 0.14 -2.18 l-2.28 -3.12 l-2.46 3.12 c-1.16 1.44 -0.86 2.08 0.28 2.18 c0.24 0.02 0.2 0.62 -0.06 0.62 l-4.5 0 c-0.26 0 -0.32 -0.6 -0.06 -0.62 c0.8 -0.06 1.92 -0.82 3 -2.18 l3.16 -4 l-3.2 -4.38 c-1.14 -1.54 -2.12 -2.14 -2.92 -2.2 c-0.28 -0.02 -0.22 -0.62 0.06 -0.62 l5.44 0 c0.24 0 0.3 0.6 0.06 0.62 c-1.32 0.12 -1.18 0.8 -0.16 2.18 l2.02 2.76 l2.18 -2.76 c1.12 -1.4 0.86 -2.08 -0.28 -2.18 c-0.26 -0.02 -0.2 -0.62 0.04 -0.62 l4.5 0 c0.26 0 0.32 0.6 0.06 0.62 c-0.8 0.06 -1.92 0.82 -3 2.18 l-2.86 3.64 l3.46 4.74 c1.12 1.52 2.12 2.14 2.94 2.2 z M40.601 10.24 c0 3.62 -3.34 5.04 -7.74 4.34 l0 3 c0 1.4 0.92 1.64 2.26 1.8 c0.14 0.02 0.04 0.62 -0.12 0.62 l-5.78 0 c-0.16 0 -0.28 -0.6 -0.12 -0.62 c0.98 -0.14 1.68 -0.5 1.68 -1.8 l0 -9.04 c0 -1.32 -0.7 -1.7 -1.68 -1.96 c-0.16 -0.04 -0.06 -0.64 0.12 -0.62 c0.8 0.1 1.68 0.12 2.28 0.12 c1.34 0 2.54 -0.12 3.58 -0.12 c2.98 0 5.52 1.12 5.52 4.28 z M34.661 6.92 c-1.4 0 -1.8 0.46 -1.8 1.62 l0 5.16 c3.54 0.48 5.5 -0.24 5.5 -3.02 c0 -2.6 -1.7 -3.76 -3.7 -3.76 z M41.8515 20.04 c-0.2 0.02 -0.28 -0.6 -0.12 -0.64 c1.18 -0.3 2.08 -0.48 2.08 -1.96 l0 -9.02 c0 -1.4 -0.82 -1.68 -1.7 -1.8 c-0.16 -0.02 -0.04 -0.62 0.1 -0.62 l5.22 0 c0.16 0 0.26 0.6 0.12 0.62 c-0.86 0.1 -1.66 0.4 -1.66 1.8 l0 9.02 c0 1.16 0.52 1.54 2.24 1.54 c3.24 0 4.28 -1.3 4.78 -2.14 c0.16 -0.26 0.64 -0.2 0.64 0.18 c0 1.1 -0.84 3 -2.06 3.02 c-0.96 -0.06 -2.24 -0.12 -3.96 -0.12 c-1.84 0 -3.84 -0.06 -5.68 0.12 z M61.982 20.32 c-4.16 0 -7.18 -3.1 -7.18 -7.26 c0 -4.02 2.84 -7.38 7.22 -7.38 c4.18 0 7.18 3.1 7.18 7.24 c0 4.04 -2.82 7.4 -7.22 7.4 z M62.721999999999994 19.1 c1.84 0 4.42 -1.18 4.42 -5.14 c0 -4.14 -2.84 -7.06 -5.84 -7.06 c-1.86 0 -4.42 1.18 -4.42 5.12 c0 4.18 2.82 7.08 5.84 7.08 z M84.89249999999998 19.54 c0.16 0 0.14 0.5 0 0.56 c-1.12 0.42 -2.78 0.28 -3.88 -1.14 l-3.12 -4 c-0.84 -1.08 -1.94 -1.28 -3.4 -1.3 l0 3.92 c0 1.4 0.92 1.64 2.26 1.8 c0.14 0.02 0.04 0.62 -0.12 0.62 l-5.78 0 c-0.16 0 -0.28 -0.6 -0.12 -0.62 c0.98 -0.14 1.68 -0.5 1.68 -1.8 l0 -9.04 c0 -1.32 -0.7 -1.7 -1.68 -1.96 c-0.16 -0.04 -0.06 -0.64 0.12 -0.62 c0.8 0.1 1.68 0.12 2.28 0.12 c1.34 0 2.62 -0.12 3.54 -0.12 c2.86 0 4.96 1.2 4.96 3.7 c0 2.38 -1.98 3.52 -3.5 3.62 l0 0.1 c0.74 0 1.24 0.32 2.08 1.38 l3.08 3.84 c0.56 0.72 1.1 0.94 1.6 0.94 z M75.1125 12.8 c3 0 4.32 -0.52 4.32 -2.62 c0 -2.18 -1.44 -3.26 -3.28 -3.26 c-1.22 0 -1.66 0.48 -1.66 1.62 l0 4.26 l0.62 0 z M85.563 20.04 c-0.2 0.02 -0.28 -0.6 -0.12 -0.64 c1.18 -0.3 2.08 -0.48 2.08 -1.96 l0 -8.96 c0 -1.34 -0.82 -1.68 -1.7 -1.9 c-0.16 -0.04 -0.08 -0.64 0.12 -0.62 c1.46 0.12 3.6 0.12 5.08 0.12 c1.82 0 3.18 -0.08 4.76 -0.12 c0.46 0 0.46 0.32 0.36 0.76 l-0.5 1.9 c-0.06 0.26 -0.54 0.26 -0.62 0 c-0.28 -0.94 -0.92 -1.6 -3.46 -1.6 c-1.5 0 -1.96 0.36 -1.96 1.46 l0 3.32 c0 0.52 0.26 0.62 0.66 0.62 l0.38 0 c1.78 0 3.12 -0.12 4 -0.96 c0.18 -0.18 0.6 -0.14 0.44 0.24 l-1.18 2.52 c-0.14 0.34 -0.42 0.3 -0.64 0 c-0.48 -0.62 -1.52 -0.86 -2.78 -0.86 l-0.22 0 c-0.4 0 -0.66 0.1 -0.66 0.62 l0 3.46 c0 1.16 0.52 1.54 2.24 1.54 c3.24 0 4.28 -1.3 4.78 -2.14 c0.16 -0.26 0.64 -0.2 0.64 0.18 c0 1.1 -0.84 3 -2.06 3.02 c-0.96 -0.06 -2.24 -0.12 -3.96 -0.12 c-1.84 0 -3.84 -0.06 -5.68 0.12 z M112.65350000000001 19.54 c0.16 0 0.14 0.5 0 0.56 c-1.12 0.42 -2.78 0.28 -3.88 -1.14 l-3.12 -4 c-0.84 -1.08 -1.94 -1.28 -3.4 -1.3 l0 3.92 c0 1.4 0.92 1.64 2.26 1.8 c0.14 0.02 0.04 0.62 -0.12 0.62 l-5.78 0 c-0.16 0 -0.28 -0.6 -0.12 -0.62 c0.98 -0.14 1.68 -0.5 1.68 -1.8 l0 -9.04 c0 -1.32 -0.7 -1.7 -1.68 -1.96 c-0.16 -0.04 -0.06 -0.64 0.12 -0.62 c0.8 0.1 1.68 0.12 2.28 0.12 c1.34 0 2.62 -0.12 3.54 -0.12 c2.86 0 4.96 1.2 4.96 3.7 c0 2.38 -1.98 3.52 -3.5 3.62 l0 0.1 c0.74 0 1.24 0.32 2.08 1.38 l3.08 3.84 c0.56 0.72 1.1 0.94 1.6 0.94 z M102.8735 12.8 c3 0 4.32 -0.52 4.32 -2.62 c0 -2.18 -1.44 -3.26 -3.28 -3.26 c-1.22 0 -1.66 0.48 -1.66 1.62 l0 4.26 l0.62 0 z">
    </path>
  </g>
</svg>